<svg height="480pt" viewBox="-136 0 480 480.0005" width="480pt" xmlns="http://www.w3.org/2000/svg"><path d="m205 30.25c2.539062-2.03125 3.597656-5.398438 2.675781-8.515625-.921875-3.121094-3.640625-5.371094-6.875-5.695313l-160-15.9999995c-.136719 0-.257812.0507813-.382812 0-.128907-.046875-.273438-.0390625-.417969-.0390625h-32c-4.417969 0-8 3.582031-8 8v48c0 4.417969 3.582031 8 8 8h53.761719l-13.519531 54.066406c-1.070313 4.285156 1.535156 8.625 5.820312 9.695313.636719.15625 1.285156.238281 1.9375.238281 3.667969-.003906 6.863281-2.503906 7.753906-6.0625l14.488282-57.9375h1.757812c13.253906 0 24 10.746094 24 24v24c-4.417969 0-8 3.582031-8 8v32c0 14.992188-15.253906 35.320312-31.414062 56.847656-22.769532 30.351563-48.585938 64.753906-48.585938 103.152344v160c0 4.417969 3.582031 8 8 8h176c4.417969 0 8-3.582031 8-8v-256c0-43.671875-13.503906-60.800781-32-67.542969v-28.457031c0-4.417969-3.582031-8-8-8v-52.160156zm-189-14.25h16v32h-16zm176 200v248h-160v-152c0-33.078125 24.113281-65.199219 45.382812-93.542969 16.152344-21.527343 30.402344-40.503906 33.824219-58.457031h24.792969c34.921875 0 56 0 56 56zm-80-72v-16h48v16zm43-94.246094c-1.898438 1.515625-3 3.816406-3 6.246094v56h-32v-24c-.027344-22.078125-17.917969-39.972656-40-40h-32v-31.160156l131.679688 13.167968zm0 0"/></svg>