<svg height="480pt" viewBox="0 -112 480.00012 480" width="480pt" xmlns="http://www.w3.org/2000/svg"><path d="m472 24h-38.398438l-1.601562-16.761719c-.394531-4.117187-3.863281-7.2578122-8-7.238281h-192c-116.660156.148438-212.167969 92.820312-215.832031 209.425781-9.648438 3.3125-16.136719 12.375-16.167969 22.574219v16c0 4.417969 3.582031 8 8 8h368c4.417969 0 8-3.582031 8-8v-24h8c4.417969 0 8-3.582031 8-8 0-17.648438 17.945312-32 40-32 2.261719.011719 4.417969-.9375 5.945312-2.605469 1.523438-1.667969 2.269532-3.90625 2.054688-6.15625l-8.246094-86.167969 35.820313-17.871093c2.726562-1.359375 4.441406-4.152344 4.425781-7.199219v-32c0-4.417969-3.582031-8-8-8zm-104 216h-352v-8c0-4.417969 3.582031-8 8-8h344zm16.800781-32h-352.640625c4.417969-107.203125 92.546875-191.871094 199.839844-192h184.726562l14.53125 152.585938c-22.269531 1.976562-40.878906 17.765624-46.457031 39.414062zm79.199219-148.945312-25.863281 12.945312-3.046875-32h28.910156zm0 0"/><path d="m392 48h-152c-48.578125.058594-87.941406 39.421875-88 88 0 4.417969 3.582031 8 8 8h232c4.417969 0 8-3.582031 8-8v-80c0-4.417969-3.582031-8-8-8zm-184 80v-8c0-4.417969 3.582031-8 8-8h32c4.417969 0 8 3.582031 8 8v8zm176 0h-112v-8c0-13.253906-10.746094-24-24-24h-32c-13.253906 0-24 10.746094-24 24v8h-23.550781c4.113281-36.417969 34.898437-63.957031 71.550781-64h144zm0 0"/></svg>