<svg height="480pt" viewBox="-56 0 480 480" width="480pt" xmlns="http://www.w3.org/2000/svg"><path d="m88 48h-48c-4.417969 0-8 3.582031-8 8s3.582031 8 8 8h48c4.417969 0 8-3.582031 8-8s-3.582031-8-8-8zm0 0"/><path d="m368 472v-464c0-4.417969-3.582031-8-8-8h-352c-4.417969 0-8 3.582031-8 8v464c0 4.417969 3.582031 8 8 8h352c4.417969 0 8-3.582031 8-8zm-352-360h336v320h-336zm336-16h-224v-80h224zm-336-80h96v80h-96zm0 448v-16h336v16zm0 0"/><path d="m240 80h88c4.417969 0 8-3.582031 8-8v-32c0-4.417969-3.582031-8-8-8h-88c-4.417969 0-8 3.582031-8 8v32c0 4.417969 3.582031 8 8 8zm8-32h72v16h-72zm0 0"/><path d="m200 56c0 8.835938-7.164062 16-16 16s-16-7.164062-16-16 7.164062-16 16-16 16 7.164062 16 16zm0 0"/><path d="m288 264c-4.417969 0-8 3.582031-8 8 .003906 45.800781-32.347656 85.222656-77.265625 94.160156-44.921875 8.9375-89.898437-15.101562-107.425781-57.414062s-2.726563-91.113282 35.355468-116.5625c38.078126-25.445313 88.828126-20.449219 121.214844 11.9375 1.898438 1.894531 3.6875 3.902344 5.425782 5.957031l-7.359376-1.839844c-4.273437-1.035156-8.582031 1.566407-9.648437 5.832031-1.070313 4.265626 1.503906 8.589844 5.757813 9.691407l32 8c2.390624.597656 4.925781.0625 6.867187-1.453125 1.941406-1.519532 3.078125-3.84375 3.078125-6.308594v-32c0-4.417969-3.582031-8-8-8s-8 3.582031-8 8v10.863281c-33.8125-42.914062-93.671875-55.136719-141.601562-28.910156-47.925782 26.230469-69.902344 83.234375-51.988282 134.847656 17.917969 51.613281 70.492188 82.738281 124.359375 73.628907 53.871094-9.113282 93.28125-55.796876 93.230469-110.429688 0-4.417969-3.582031-8-8-8zm0 0"/><path d="m168 280c4.417969 0 8-3.582031 8-8v-32c0-4.417969-3.582031-8-8-8h-32c-4.417969 0-8 3.582031-8 8s3.582031 8 8 8h24v16h-24c-4.417969 0-8 3.582031-8 8v32c0 4.417969 3.582031 8 8 8h32c4.417969 0 8-3.582031 8-8s-3.582031-8-8-8h-24v-16zm0 0"/><path d="m232 312c4.417969 0 8-3.582031 8-8v-24h8c4.417969 0 8-3.582031 8-8s-3.582031-8-8-8h-8v-16c0-4.417969-3.582031-8-8-8s-8 3.582031-8 8v16h-16v-24c0-4.417969-3.582031-8-8-8s-8 3.582031-8 8v32c0 4.417969 3.582031 8 8 8h24v24c0 4.417969 3.582031 8 8 8zm0 0"/></svg>